<?xml version="1.0" encoding="utf-8"?>
<svg width="926" height="926" viewBox="0 0 926 926" fill="none" xmlns="http://www.w3.org/2000/svg">
  <defs>
    <linearGradient id="gradient_1" gradientUnits="userSpaceOnUse" x1="0" y1="0" x2="350" y2="350">
      <stop offset="0.29" stop-color="#9FA3FF" />
      <stop offset="1" stop-color="#3126FF" />
    </linearGradient>
    <linearGradient id="gradient_2" gradientUnits="userSpaceOnUse" x1="0" y1="0" x2="350" y2="350">
      <stop offset="0.333" stop-color="#FF7878" />
      <stop offset="1" stop-color="#FF2933" />
    </linearGradient>
    <linearGradient id="gradient_3" gradientUnits="userSpaceOnUse" x1="0" y1="0" x2="350" y2="350">
      <stop offset="0.451" stop-color="#78B3FC" />
      <stop offset="1" stop-color="#2593FF" />
    </linearGradient>
    <linearGradient id="gradient_4" gradientUnits="userSpaceOnUse" x1="0" y1="0" x2="350" y2="350">
      <stop offset="0.302" stop-color="#56FF53" />
      <stop offset="1" stop-color="#00E208" />
    </linearGradient>
    <linearGradient id="gradient_5" gradientUnits="userSpaceOnUse" x1="0" y1="0" x2="350" y2="350">
      <stop offset="0.309" stop-color="#F5E51D" />
      <stop offset="1" stop-color="#FFB134" />
    </linearGradient>
    <linearGradient id="gradient_6" gradientUnits="userSpaceOnUse" x1="303.571" y1="305.74" x2="-216.833" y2="70.602">
      <stop offset="0" stop-color="#FF8D1C" />
      <stop offset="0.396" stop-color="#FFBC50" />
      <stop offset="1" stop-color="#FF9329" />
    </linearGradient>
    <linearGradient id="gradient_7" gradientUnits="userSpaceOnUse" x1="0" y1="0" x2="313" y2="313">
      <stop offset="0" stop-color="#FFFFFF" />
      <stop offset="0.256" stop-color="#F2C4FD" />
      <stop offset="0.37" stop-color="#ECAAFC" />
      <stop offset="0.432" stop-color="#E99CFC" />
      <stop offset="1" stop-color="#CF1BFB" />
    </linearGradient>
    <filter color-interpolation-filters="sRGB" x="-117" y="-191.636" width="119" height="193.636" id="filter_8">
      <feFlood flood-opacity="0" result="BackgroundImageFix_1" />
      <feColorMatrix type="matrix" values="0 0 0 0 0 0 0 0 0 0 0 0 0 0 0 0 0 0 1 0" in="SourceAlpha" />
      <feOffset dx="0" dy="4" />
      <feGaussianBlur stdDeviation="5.5" />
      <feColorMatrix type="matrix" values="0 0 0 0 0.392 0 0 0 0 0.392 0 0 0 0 0.392 0 0 0 0.498 0" />
      <feBlend mode="normal" in2="BackgroundImageFix_1" result="Shadow_2" />
      <feBlend mode="normal" in="SourceGraphic" in2="Shadow_2" result="Shape_3" />
    </filter>
  </defs>
  <g>
    <path d="M190.953 9.21054L310.601 78.2894Q311.053 78.5504 311.497 78.8261Q311.94 79.1018 312.374 79.3919Q312.808 79.682 313.233 79.9861Q313.657 80.2902 314.071 80.608Q314.486 80.9259 314.889 81.2571Q315.293 81.5883 315.685 81.9326Q316.078 82.2768 316.459 82.6338Q316.84 82.9907 317.209 83.3598Q317.578 83.729 317.935 84.1101Q318.292 84.4912 318.637 84.8837Q318.981 85.2763 319.312 85.6799Q319.643 86.0835 319.961 86.4977Q320.279 86.9119 320.583 87.3363Q320.887 87.7607 321.177 88.1948Q321.467 88.6289 321.743 89.0723Q322.019 89.5157 322.28 89.9678Q322.541 90.42 322.787 90.8805Q323.033 91.3409 323.264 91.8092Q323.495 92.2775 323.71 92.753Q323.926 93.2286 324.126 93.711Q324.325 94.1933 324.509 94.682Q324.693 95.1706 324.861 95.665Q325.029 96.1594 325.18 96.6591Q325.332 97.1587 325.467 97.663Q325.602 98.1673 325.721 98.6758Q325.839 99.1843 325.941 99.6964Q326.043 100.208 326.128 100.724Q326.213 101.239 326.281 101.756Q326.35 102.274 326.401 102.794Q326.452 103.313 326.486 103.834Q326.52 104.355 326.537 104.877Q326.554 105.399 326.554 105.921L326.555 244.079Q326.555 244.601 326.537 245.123Q326.52 245.645 326.486 246.165Q326.452 246.686 326.401 247.206Q326.35 247.726 326.282 248.243Q326.213 248.761 326.128 249.276Q326.043 249.791 325.941 250.303Q325.84 250.815 325.721 251.324Q325.602 251.832 325.467 252.337Q325.332 252.841 325.181 253.341Q325.029 253.84 324.861 254.335Q324.693 254.829 324.51 255.318Q324.326 255.806 324.126 256.289Q323.926 256.771 323.711 257.247Q323.495 257.722 323.264 258.191Q323.033 258.659 322.787 259.119Q322.541 259.58 322.28 260.032Q322.019 260.484 321.743 260.927Q321.467 261.371 321.177 261.805Q320.887 262.239 320.583 262.663Q320.279 263.088 319.961 263.502Q319.643 263.916 319.312 264.32Q318.981 264.723 318.637 265.116Q318.292 265.509 317.936 265.89Q317.579 266.271 317.209 266.64Q316.84 267.009 316.459 267.366Q316.078 267.723 315.686 268.067Q315.293 268.411 314.889 268.743Q314.486 269.074 314.072 269.392Q313.657 269.709 313.233 270.014Q312.809 270.318 312.375 270.608Q311.94 270.898 311.497 271.174Q311.054 271.449 310.601 271.71L190.954 340.789Q190.501 341.051 190.041 341.297Q189.58 341.543 189.112 341.774Q188.644 342.005 188.168 342.22Q187.693 342.436 187.21 342.635Q186.728 342.835 186.239 343.019Q185.751 343.203 185.256 343.371Q184.762 343.539 184.262 343.69Q183.763 343.842 183.258 343.977Q182.754 344.112 182.246 344.231Q181.737 344.349 181.225 344.451Q180.713 344.553 180.198 344.638Q179.683 344.723 179.165 344.791Q178.647 344.859 178.128 344.91Q177.608 344.962 177.087 344.996Q176.566 345.03 176.044 345.047Q175.523 345.064 175 345.064Q174.478 345.064 173.956 345.047Q173.435 345.03 172.914 344.996Q172.393 344.962 171.873 344.91Q171.353 344.859 170.836 344.791Q170.318 344.723 169.803 344.638Q169.288 344.553 168.776 344.451Q168.264 344.349 167.755 344.231Q167.247 344.112 166.742 343.977Q166.238 343.842 165.739 343.69Q165.239 343.539 164.744 343.371Q164.25 343.203 163.761 343.019Q163.273 342.835 162.79 342.635Q162.308 342.436 161.832 342.22Q161.357 342.005 160.889 341.774Q160.42 341.543 159.96 341.297Q159.499 341.051 159.047 340.79L39.399 271.711Q38.9468 271.45 38.5034 271.174Q38.0601 270.898 37.6259 270.608Q37.1918 270.318 36.7674 270.014Q36.343 269.71 35.9288 269.392Q35.5146 269.074 35.111 268.743Q34.7074 268.412 34.3148 268.068Q33.9223 267.723 33.5412 267.367Q33.1602 267.01 32.791 266.64Q32.4218 266.271 32.0649 265.89Q31.708 265.509 31.3637 265.117Q31.0194 264.724 30.6882 264.32Q30.357 263.917 30.0392 263.503Q29.7213 263.088 29.4172 262.664Q29.1131 262.24 28.823 261.806Q28.5329 261.371 28.2572 260.928Q27.9815 260.485 27.7205 260.033Q27.4594 259.58 27.2133 259.12Q26.9671 258.659 26.7362 258.191Q26.5053 257.723 26.2898 257.247Q26.0743 256.772 25.8745 256.289Q25.6747 255.807 25.4908 255.318Q25.3069 254.83 25.1391 254.335Q24.9712 253.841 24.8197 253.341Q24.6681 252.842 24.533 252.337Q24.3978 251.833 24.2793 251.325Q24.1607 250.816 24.0589 250.304Q23.957 249.792 23.872 249.277Q23.7869 248.762 23.7187 248.244Q23.6506 247.726 23.5994 247.207Q23.5482 246.687 23.5141 246.166Q23.4799 245.645 23.4629 245.123Q23.4458 244.602 23.4458 244.079L23.4453 105.922Q23.4453 105.4 23.4624 104.878Q23.4794 104.356 23.5136 103.835Q23.5477 103.314 23.5989 102.794Q23.6501 102.275 23.7182 101.757Q23.7864 101.239 23.8714 100.724Q23.9565 100.209 24.0583 99.6971Q24.1602 99.185 24.2787 98.6765Q24.3973 98.1681 24.5324 97.6637Q24.6676 97.1594 24.8191 96.6598Q24.9707 96.1602 25.1385 95.6658Q25.3063 95.1714 25.4902 94.6827Q25.6742 94.1941 25.874 93.7117Q26.0738 93.2293 26.2892 92.7538Q26.5047 92.2782 26.7356 91.8099Q26.9666 91.3416 27.2127 90.8812Q27.4588 90.4207 27.7199 89.9686Q27.9809 89.5164 28.2566 89.073Q28.5323 88.6296 28.8224 88.1955Q29.1125 87.7614 29.4166 87.337Q29.7207 86.9126 30.0386 86.4984Q30.3564 86.0842 30.6876 85.6805Q31.0188 85.277 31.3631 84.8844Q31.7073 84.4919 32.0643 84.1108Q32.4212 83.7297 32.7904 83.3605Q33.1595 82.9913 33.5406 82.6344Q33.9217 82.2775 34.3142 81.9333Q34.7068 81.589 35.1104 81.2578Q35.514 80.9266 35.9282 80.6087Q36.3424 80.2909 36.7668 79.9867Q37.1912 79.6826 37.6253 79.3926Q38.0594 79.1025 38.5028 78.8268Q38.9462 78.5511 39.3983 78.29L159.047 9.2106Q159.499 8.94954 159.959 8.70342Q160.42 8.4573 160.888 8.22637Q161.356 7.99545 161.832 7.77997Q162.308 7.56449 162.79 7.36468Q163.272 7.16488 163.761 6.98096Q164.25 6.79705 164.744 6.62922Q165.238 6.46139 165.738 6.30983Q166.238 6.15826 166.742 6.02313Q167.246 5.888 167.755 5.76944Q168.263 5.65088 168.775 5.54902Q169.287 5.44715 169.803 5.3621Q170.318 5.27705 170.835 5.2089Q171.353 5.14075 171.873 5.08957Q172.392 5.0384 172.913 5.00425Q173.434 4.9701 173.956 4.95302Q174.478 4.93593 175 4.93593Q175.522 4.93593 176.044 4.95301Q176.566 4.97009 177.087 5.00424Q177.608 5.03839 178.127 5.08956Q178.647 5.14074 179.165 5.20889Q179.682 5.27704 180.197 5.36208Q180.713 5.44713 181.225 5.54899Q181.737 5.65085 182.245 5.76941Q182.754 5.88797 183.258 6.0231Q183.762 6.15823 184.262 6.30979Q184.762 6.46135 185.256 6.62918Q185.75 6.797 186.239 6.98092Q186.728 7.16483 187.21 7.36463Q187.692 7.56444 188.168 7.77992Q188.644 7.99539 189.112 8.22632Q189.58 8.45724 190.041 8.70336Q190.501 8.94949 190.953 9.21054Z" fill="url(#gradient_1)" fill-rule="evenodd" transform="translate(-23 290)" />
    <path d="M190.953 9.21055L310.601 78.2894Q311.053 78.5504 311.497 78.8261Q311.94 79.1018 312.374 79.3919Q312.808 79.682 313.233 79.9861Q313.657 80.2902 314.071 80.608Q314.486 80.9259 314.889 81.2571Q315.293 81.5883 315.685 81.9326Q316.078 82.2768 316.459 82.6337Q316.84 82.9906 317.209 83.3598Q317.578 83.729 317.935 84.1101Q318.292 84.4912 318.637 84.8837Q318.981 85.2763 319.312 85.6799Q319.643 86.0835 319.961 86.4977Q320.279 86.9119 320.583 87.3363Q320.887 87.7607 321.177 88.1948Q321.467 88.6289 321.743 89.0723Q322.019 89.5157 322.28 89.9678Q322.541 90.42 322.787 90.8805Q323.033 91.3409 323.264 91.8092Q323.495 92.2775 323.71 92.753Q323.926 93.2286 324.126 93.711Q324.325 94.1933 324.509 94.682Q324.693 95.1706 324.861 95.665Q325.029 96.1594 325.18 96.6591Q325.332 97.1587 325.467 97.663Q325.602 98.1673 325.721 98.6758Q325.839 99.1843 325.941 99.6963Q326.043 100.208 326.128 100.724Q326.213 101.239 326.281 101.756Q326.35 102.274 326.401 102.794Q326.452 103.313 326.486 103.834Q326.52 104.355 326.537 104.877Q326.554 105.399 326.554 105.921L326.555 244.079Q326.555 244.601 326.537 245.123Q326.52 245.644 326.486 246.165Q326.452 246.686 326.401 247.206Q326.35 247.726 326.282 248.243Q326.213 248.761 326.128 249.276Q326.043 249.791 325.941 250.303Q325.84 250.815 325.721 251.324Q325.602 251.832 325.467 252.337Q325.332 252.841 325.181 253.341Q325.029 253.84 324.861 254.335Q324.693 254.829 324.51 255.318Q324.326 255.806 324.126 256.289Q323.926 256.771 323.711 257.247Q323.495 257.722 323.264 258.19Q323.033 258.659 322.787 259.119Q322.541 259.58 322.28 260.032Q322.019 260.484 321.743 260.927Q321.467 261.371 321.177 261.805Q320.887 262.239 320.583 262.663Q320.279 263.088 319.961 263.502Q319.643 263.916 319.312 264.32Q318.981 264.723 318.637 265.116Q318.292 265.509 317.936 265.89Q317.579 266.271 317.209 266.64Q316.84 267.009 316.459 267.366Q316.078 267.723 315.686 268.067Q315.293 268.411 314.889 268.743Q314.486 269.074 314.072 269.392Q313.657 269.709 313.233 270.014Q312.809 270.318 312.375 270.608Q311.94 270.898 311.497 271.174Q311.054 271.449 310.601 271.71L190.954 340.789Q190.501 341.051 190.041 341.297Q189.58 341.543 189.112 341.774Q188.644 342.005 188.168 342.22Q187.693 342.436 187.21 342.635Q186.728 342.835 186.239 343.019Q185.751 343.203 185.256 343.371Q184.762 343.539 184.262 343.69Q183.763 343.842 183.258 343.977Q182.754 344.112 182.246 344.231Q181.737 344.349 181.225 344.451Q180.713 344.553 180.198 344.638Q179.683 344.723 179.165 344.791Q178.647 344.859 178.128 344.91Q177.608 344.962 177.087 344.996Q176.566 345.03 176.044 345.047Q175.523 345.064 175 345.064Q174.478 345.064 173.956 345.047Q173.435 345.03 172.914 344.996Q172.393 344.962 171.873 344.91Q171.353 344.859 170.836 344.791Q170.318 344.723 169.803 344.638Q169.288 344.553 168.776 344.451Q168.264 344.349 167.755 344.231Q167.247 344.112 166.742 343.977Q166.238 343.842 165.739 343.69Q165.239 343.539 164.744 343.371Q164.25 343.203 163.761 343.019Q163.273 342.835 162.79 342.635Q162.308 342.436 161.832 342.22Q161.357 342.005 160.889 341.774Q160.42 341.543 159.96 341.297Q159.499 341.051 159.047 340.79L39.399 271.711Q38.9468 271.45 38.5034 271.174Q38.0601 270.898 37.6259 270.608Q37.1918 270.318 36.7674 270.014Q36.343 269.71 35.9288 269.392Q35.5146 269.074 35.111 268.743Q34.7074 268.412 34.3148 268.068Q33.9223 267.724 33.5412 267.367Q33.1602 267.01 32.791 266.64Q32.4218 266.271 32.0649 265.89Q31.7079 265.509 31.3637 265.117Q31.0194 264.724 30.6882 264.32Q30.357 263.917 30.0391 263.503Q29.7213 263.088 29.4172 262.664Q29.1131 262.24 28.823 261.806Q28.5329 261.371 28.2572 260.928Q27.9815 260.485 27.7204 260.033Q27.4594 259.58 27.2133 259.12Q26.9671 258.659 26.7362 258.191Q26.5053 257.723 26.2898 257.247Q26.0743 256.772 25.8745 256.289Q25.6747 255.807 25.4908 255.318Q25.3069 254.83 25.1391 254.335Q24.9712 253.841 24.8197 253.341Q24.6681 252.842 24.533 252.337Q24.3978 251.833 24.2793 251.325Q24.1607 250.816 24.0589 250.304Q23.957 249.792 23.8719 249.277Q23.7869 248.762 23.7187 248.244Q23.6506 247.726 23.5994 247.207Q23.5482 246.687 23.5141 246.166Q23.4799 245.645 23.4629 245.123Q23.4458 244.602 23.4458 244.079L23.4453 105.922Q23.4453 105.4 23.4624 104.878Q23.4794 104.356 23.5136 103.835Q23.5477 103.314 23.5989 102.794Q23.6501 102.275 23.7182 101.757Q23.7864 101.239 23.8714 100.724Q23.9565 100.209 24.0583 99.6971Q24.1602 99.185 24.2787 98.6765Q24.3973 98.1681 24.5324 97.6637Q24.6676 97.1594 24.8191 96.6598Q24.9707 96.1602 25.1385 95.6658Q25.3063 95.1714 25.4902 94.6827Q25.6742 94.1941 25.874 93.7117Q26.0738 93.2293 26.2892 92.7538Q26.5047 92.2782 26.7356 91.8099Q26.9666 91.3416 27.2127 90.8812Q27.4588 90.4207 27.7199 89.9686Q27.9809 89.5164 28.2566 89.073Q28.5323 88.6296 28.8224 88.1955Q29.1125 87.7614 29.4166 87.337Q29.7207 86.9126 30.0386 86.4984Q30.3564 86.0841 30.6876 85.6805Q31.0188 85.2769 31.3631 84.8844Q31.7073 84.4919 32.0643 84.1108Q32.4212 83.7297 32.7904 83.3605Q33.1595 82.9913 33.5406 82.6344Q33.9217 82.2775 34.3142 81.9333Q34.7068 81.589 35.1104 81.2578Q35.514 80.9266 35.9282 80.6087Q36.3424 80.2909 36.7668 79.9867Q37.1912 79.6826 37.6253 79.3926Q38.0594 79.1025 38.5028 78.8268Q38.9462 78.5511 39.3983 78.29L159.047 9.21059Q159.499 8.94953 159.96 8.70341Q160.42 8.45729 160.888 8.22636Q161.356 7.99544 161.832 7.77996Q162.308 7.56448 162.79 7.36467Q163.272 7.16487 163.761 6.98095Q164.25 6.79704 164.744 6.62921Q165.238 6.46138 165.738 6.30982Q166.238 6.15826 166.742 6.02312Q167.246 5.88799 167.755 5.76943Q168.263 5.65087 168.775 5.54901Q169.288 5.44715 169.803 5.3621Q170.318 5.27705 170.835 5.2089Q171.353 5.14075 171.873 5.08957Q172.392 5.0384 172.913 5.00425Q173.434 4.9701 173.956 4.95302Q174.478 4.93593 175 4.93593Q175.522 4.93593 176.044 4.95301Q176.566 4.9701 177.087 5.00424Q177.608 5.03839 178.127 5.08957Q178.647 5.14074 179.165 5.20889Q179.682 5.27704 180.197 5.36209Q180.713 5.44714 181.225 5.549Q181.737 5.65085 182.245 5.76941Q182.754 5.88797 183.258 6.0231Q183.762 6.15824 184.262 6.3098Q184.762 6.46136 185.256 6.62918Q185.75 6.79701 186.239 6.98093Q186.728 7.16484 187.21 7.36464Q187.692 7.56445 188.168 7.77993Q188.644 7.9954 189.112 8.22633Q189.58 8.45725 190.041 8.70337Q190.501 8.9495 190.953 9.21055L190.953 9.21055Z" fill="url(#gradient_2)" fill-rule="evenodd" transform="translate(129 28)" />
    <path d="M190.953 9.21057L310.601 78.2894Q311.053 78.5504 311.497 78.8261Q311.94 79.1018 312.374 79.3919Q312.808 79.682 313.233 79.9861Q313.657 80.2902 314.071 80.608Q314.486 80.9259 314.889 81.2571Q315.293 81.5883 315.685 81.9326Q316.078 82.2768 316.459 82.6338Q316.84 82.9907 317.209 83.3598Q317.578 83.729 317.935 84.1101Q318.292 84.4912 318.637 84.8837Q318.981 85.2763 319.312 85.6799Q319.643 86.0835 319.961 86.4977Q320.279 86.9119 320.583 87.3363Q320.887 87.7607 321.177 88.1948Q321.467 88.6289 321.743 89.0723Q322.019 89.5157 322.28 89.9678Q322.541 90.42 322.787 90.8805Q323.033 91.3409 323.264 91.8092Q323.495 92.2775 323.71 92.753Q323.926 93.2286 324.126 93.711Q324.325 94.1933 324.509 94.682Q324.693 95.1706 324.861 95.665Q325.029 96.1594 325.18 96.6591Q325.332 97.1587 325.467 97.663Q325.602 98.1673 325.721 98.6758Q325.839 99.1843 325.941 99.6964Q326.043 100.208 326.128 100.724Q326.213 101.239 326.281 101.756Q326.35 102.274 326.401 102.794Q326.452 103.313 326.486 103.834Q326.52 104.355 326.537 104.877Q326.554 105.399 326.554 105.921L326.555 244.079Q326.555 244.601 326.537 245.123Q326.52 245.645 326.486 246.165Q326.452 246.686 326.401 247.206Q326.35 247.726 326.282 248.243Q326.213 248.761 326.128 249.276Q326.043 249.791 325.941 250.303Q325.84 250.815 325.721 251.324Q325.602 251.832 325.467 252.337Q325.332 252.841 325.181 253.341Q325.029 253.84 324.861 254.335Q324.693 254.829 324.51 255.318Q324.326 255.806 324.126 256.289Q323.926 256.771 323.711 257.247Q323.495 257.722 323.264 258.191Q323.033 258.659 322.787 259.119Q322.541 259.58 322.28 260.032Q322.019 260.484 321.743 260.927Q321.467 261.371 321.177 261.805Q320.887 262.239 320.583 262.663Q320.279 263.088 319.961 263.502Q319.643 263.916 319.312 264.32Q318.981 264.723 318.637 265.116Q318.292 265.509 317.936 265.89Q317.579 266.271 317.209 266.64Q316.84 267.009 316.459 267.366Q316.078 267.723 315.686 268.067Q315.293 268.411 314.889 268.743Q314.486 269.074 314.072 269.392Q313.657 269.709 313.233 270.014Q312.809 270.318 312.375 270.608Q311.94 270.898 311.497 271.174Q311.054 271.449 310.601 271.71L190.954 340.789Q190.501 341.051 190.041 341.297Q189.58 341.543 189.112 341.774Q188.644 342.005 188.168 342.22Q187.693 342.436 187.21 342.635Q186.728 342.835 186.239 343.019Q185.751 343.203 185.256 343.371Q184.762 343.539 184.262 343.69Q183.763 343.842 183.258 343.977Q182.754 344.112 182.246 344.231Q181.737 344.349 181.225 344.451Q180.713 344.553 180.198 344.638Q179.683 344.723 179.165 344.791Q178.647 344.859 178.128 344.91Q177.608 344.962 177.087 344.996Q176.566 345.03 176.044 345.047Q175.523 345.064 175 345.064Q174.478 345.064 173.956 345.047Q173.435 345.03 172.914 344.996Q172.393 344.962 171.873 344.91Q171.353 344.859 170.836 344.791Q170.318 344.723 169.803 344.638Q169.288 344.553 168.776 344.451Q168.264 344.349 167.755 344.231Q167.247 344.112 166.742 343.977Q166.238 343.842 165.739 343.69Q165.239 343.539 164.744 343.371Q164.25 343.203 163.761 343.019Q163.273 342.835 162.79 342.635Q162.308 342.436 161.832 342.22Q161.357 342.005 160.889 341.774Q160.42 341.543 159.96 341.297Q159.499 341.051 159.047 340.79L39.399 271.711Q38.9468 271.45 38.5034 271.174Q38.0601 270.898 37.6259 270.608Q37.1918 270.318 36.7674 270.014Q36.343 269.71 35.9288 269.392Q35.5146 269.074 35.111 268.743Q34.7074 268.412 34.3148 268.068Q33.9223 267.723 33.5412 267.367Q33.1602 267.01 32.791 266.64Q32.4218 266.271 32.0649 265.89Q31.7079 265.509 31.3637 265.117Q31.0194 264.724 30.6882 264.32Q30.357 263.917 30.0391 263.503Q29.7213 263.088 29.4172 262.664Q29.1131 262.24 28.823 261.806Q28.5329 261.371 28.2572 260.928Q27.9815 260.485 27.7204 260.033Q27.4594 259.58 27.2133 259.12Q26.9671 258.659 26.7362 258.191Q26.5053 257.723 26.2898 257.247Q26.0743 256.772 25.8745 256.289Q25.6747 255.807 25.4908 255.318Q25.3069 254.83 25.1391 254.335Q24.9712 253.841 24.8197 253.341Q24.6681 252.842 24.533 252.337Q24.3978 251.833 24.2793 251.325Q24.1607 250.816 24.0589 250.304Q23.957 249.792 23.8719 249.277Q23.7869 248.762 23.7187 248.244Q23.6506 247.726 23.5994 247.207Q23.5482 246.687 23.5141 246.166Q23.4799 245.645 23.4629 245.123Q23.4458 244.602 23.4458 244.079L23.4453 105.922Q23.4453 105.4 23.4624 104.878Q23.4794 104.356 23.5136 103.835Q23.5477 103.314 23.5989 102.794Q23.6501 102.275 23.7182 101.757Q23.7864 101.239 23.8714 100.724Q23.9565 100.209 24.0583 99.6971Q24.1602 99.185 24.2787 98.6765Q24.3973 98.1681 24.5324 97.6637Q24.6676 97.1594 24.8191 96.6598Q24.9707 96.1602 25.1385 95.6658Q25.3063 95.1714 25.4902 94.6827Q25.6742 94.1941 25.874 93.7117Q26.0738 93.2293 26.2892 92.7538Q26.5047 92.2782 26.7356 91.8099Q26.9666 91.3416 27.2127 90.8812Q27.4588 90.4207 27.7199 89.9686Q27.9809 89.5164 28.2566 89.073Q28.5323 88.6296 28.8224 88.1955Q29.1125 87.7614 29.4166 87.337Q29.7207 86.9126 30.0386 86.4984Q30.3564 86.0842 30.6876 85.6806Q31.0188 85.277 31.3631 84.8844Q31.7073 84.4919 32.0643 84.1108Q32.4212 83.7297 32.7904 83.3605Q33.1595 82.9914 33.5406 82.6345Q33.9217 82.2775 34.3142 81.9333Q34.7068 81.589 35.1104 81.2578Q35.514 80.9266 35.9282 80.6087Q36.3424 80.2909 36.7668 79.9868Q37.1912 79.6827 37.6253 79.3926Q38.0594 79.1025 38.5028 78.8268Q38.9462 78.5511 39.3983 78.29L159.047 9.21057Q159.499 8.94951 159.96 8.70339Q160.42 8.45727 160.888 8.22635Q161.356 7.99542 161.832 7.77994Q162.308 7.56446 162.79 7.36466Q163.272 7.16485 163.761 6.98094Q164.25 6.79702 164.744 6.6292Q165.238 6.46137 165.738 6.30981Q166.238 6.15825 166.742 6.02311Q167.246 5.88798 167.755 5.76942Q168.263 5.65086 168.775 5.549Q169.288 5.44714 169.803 5.36209Q170.318 5.27704 170.835 5.20889Q171.353 5.14075 171.873 5.08957Q172.392 5.03839 172.913 5.00425Q173.434 4.9701 173.956 4.95301Q174.478 4.93593 175 4.93593Q175.522 4.93593 176.044 4.95301Q176.566 4.9701 177.087 5.00425Q177.608 5.03839 178.127 5.08957Q178.647 5.14075 179.165 5.20889Q179.682 5.27704 180.197 5.36209Q180.713 5.44714 181.225 5.549Q181.737 5.65086 182.245 5.76942Q182.754 5.88798 183.258 6.02311Q183.762 6.15825 184.262 6.30981Q184.762 6.46137 185.256 6.6292Q185.75 6.79702 186.239 6.98094Q186.728 7.16485 187.21 7.36466Q187.692 7.56446 188.168 7.77994Q188.644 7.99542 189.112 8.22635Q189.58 8.45727 190.041 8.70339Q190.501 8.94951 190.953 9.21057Z" fill="url(#gradient_3)" fill-rule="evenodd" transform="translate(129 552)" />
    <path d="M190.953 9.21057L310.601 78.2894Q311.053 78.5504 311.497 78.8261Q311.94 79.1018 312.374 79.3919Q312.808 79.682 313.233 79.9861Q313.657 80.2902 314.071 80.608Q314.486 80.9259 314.889 81.2571Q315.293 81.5883 315.685 81.9326Q316.078 82.2768 316.459 82.6338Q316.84 82.9907 317.209 83.3598Q317.578 83.729 317.935 84.1101Q318.292 84.4912 318.637 84.8837Q318.981 85.2763 319.312 85.6799Q319.643 86.0835 319.961 86.4977Q320.279 86.9119 320.583 87.3363Q320.887 87.7607 321.177 88.1948Q321.467 88.6289 321.743 89.0723Q322.019 89.5157 322.28 89.9678Q322.541 90.42 322.787 90.8805Q323.033 91.3409 323.264 91.8092Q323.495 92.2775 323.71 92.753Q323.926 93.2286 324.126 93.711Q324.326 94.1933 324.509 94.682Q324.693 95.1706 324.861 95.665Q325.029 96.1594 325.181 96.6591Q325.332 97.1587 325.467 97.663Q325.602 98.1673 325.721 98.6758Q325.839 99.1843 325.941 99.6964Q326.043 100.208 326.128 100.724Q326.213 101.239 326.281 101.756Q326.35 102.274 326.401 102.794Q326.452 103.313 326.486 103.834Q326.52 104.355 326.537 104.877Q326.554 105.399 326.554 105.921L326.555 244.079Q326.555 244.601 326.537 245.123Q326.52 245.645 326.486 246.165Q326.452 246.686 326.401 247.206Q326.35 247.726 326.282 248.243Q326.213 248.761 326.128 249.276Q326.043 249.791 325.941 250.303Q325.84 250.815 325.721 251.324Q325.603 251.832 325.467 252.337Q325.332 252.841 325.181 253.341Q325.029 253.84 324.861 254.335Q324.693 254.829 324.51 255.318Q324.326 255.806 324.126 256.289Q323.926 256.771 323.711 257.247Q323.495 257.722 323.264 258.191Q323.033 258.659 322.787 259.119Q322.541 259.58 322.28 260.032Q322.019 260.484 321.743 260.927Q321.467 261.371 321.177 261.805Q320.887 262.239 320.583 262.663Q320.279 263.088 319.961 263.502Q319.643 263.916 319.312 264.32Q318.981 264.723 318.637 265.116Q318.292 265.509 317.936 265.89Q317.579 266.271 317.209 266.64Q316.84 267.009 316.459 267.366Q316.078 267.723 315.686 268.067Q315.293 268.411 314.889 268.743Q314.486 269.074 314.072 269.392Q313.657 269.709 313.233 270.014Q312.809 270.318 312.374 270.608Q311.94 270.898 311.497 271.174Q311.054 271.449 310.601 271.71L190.954 340.789Q190.501 341.051 190.041 341.297Q189.58 341.543 189.112 341.774Q188.644 342.005 188.168 342.22Q187.693 342.436 187.21 342.635Q186.728 342.835 186.239 343.019Q185.751 343.203 185.256 343.371Q184.762 343.539 184.262 343.69Q183.763 343.842 183.258 343.977Q182.754 344.112 182.246 344.231Q181.737 344.349 181.225 344.451Q180.713 344.553 180.198 344.638Q179.683 344.723 179.165 344.791Q178.647 344.859 178.128 344.91Q177.608 344.962 177.087 344.996Q176.566 345.03 176.044 345.047Q175.523 345.064 175 345.064Q174.478 345.064 173.956 345.047Q173.435 345.03 172.914 344.996Q172.393 344.962 171.873 344.91Q171.353 344.859 170.836 344.791Q170.318 344.723 169.803 344.638Q169.288 344.553 168.776 344.451Q168.264 344.349 167.755 344.231Q167.247 344.112 166.742 343.977Q166.238 343.842 165.739 343.69Q165.239 343.539 164.744 343.371Q164.25 343.203 163.761 343.019Q163.273 342.835 162.79 342.635Q162.308 342.436 161.832 342.22Q161.357 342.005 160.889 341.774Q160.42 341.543 159.96 341.297Q159.499 341.051 159.047 340.79L39.399 271.711Q38.9468 271.45 38.5034 271.174Q38.0601 270.898 37.6259 270.608Q37.1918 270.318 36.7674 270.014Q36.343 269.71 35.9288 269.392Q35.5146 269.074 35.111 268.743Q34.7074 268.412 34.3148 268.068Q33.9223 267.723 33.5412 267.367Q33.1602 267.01 32.791 266.64Q32.4218 266.271 32.0649 265.89Q31.708 265.509 31.3637 265.117Q31.0194 264.724 30.6882 264.32Q30.357 263.917 30.0392 263.503Q29.7213 263.088 29.4172 262.664Q29.1131 262.24 28.823 261.806Q28.5329 261.371 28.2572 260.928Q27.9815 260.485 27.7204 260.033Q27.4594 259.58 27.2133 259.12Q26.9671 258.659 26.7362 258.191Q26.5053 257.723 26.2898 257.247Q26.0743 256.772 25.8745 256.289Q25.6747 255.807 25.4908 255.318Q25.3069 254.83 25.1391 254.335Q24.9712 253.841 24.8197 253.341Q24.6681 252.842 24.533 252.337Q24.3978 251.833 24.2793 251.325Q24.1607 250.816 24.0589 250.304Q23.957 249.792 23.8719 249.277Q23.7869 248.762 23.7187 248.244Q23.6506 247.726 23.5994 247.207Q23.5482 246.687 23.5141 246.166Q23.4799 245.645 23.4629 245.123Q23.4458 244.602 23.4458 244.079L23.4453 105.922Q23.4453 105.4 23.4624 104.878Q23.4794 104.356 23.5136 103.835Q23.5477 103.314 23.5989 102.794Q23.6501 102.275 23.7182 101.757Q23.7864 101.239 23.8714 100.724Q23.9565 100.209 24.0583 99.6971Q24.1602 99.185 24.2787 98.6765Q24.3973 98.1681 24.5324 97.6637Q24.6676 97.1594 24.8191 96.6598Q24.9707 96.1602 25.1385 95.6658Q25.3063 95.1714 25.4902 94.6827Q25.6742 94.1941 25.874 93.7117Q26.0738 93.2293 26.2892 92.7538Q26.5047 92.2782 26.7356 91.8099Q26.9666 91.3416 27.2127 90.8812Q27.4588 90.4207 27.7199 89.9686Q27.9809 89.5164 28.2566 89.073Q28.5323 88.6296 28.8224 88.1955Q29.1125 87.7614 29.4166 87.337Q29.7207 86.9126 30.0386 86.4984Q30.3564 86.0842 30.6876 85.6806Q31.0188 85.277 31.3631 84.8844Q31.7073 84.4919 32.0643 84.1108Q32.4212 83.7297 32.7904 83.3605Q33.1595 82.9914 33.5406 82.6345Q33.9217 82.2775 34.3142 81.9333Q34.7068 81.589 35.1104 81.2578Q35.514 80.9266 35.9282 80.6087Q36.3424 80.2909 36.7668 79.9868Q37.1912 79.6827 37.6253 79.3926Q38.0594 79.1025 38.5028 78.8268Q38.9462 78.5511 39.3983 78.29L159.047 9.21057Q159.499 8.94951 159.96 8.70339Q160.42 8.45727 160.888 8.22635Q161.356 7.99542 161.832 7.77994Q162.308 7.56446 162.79 7.36466Q163.272 7.16485 163.761 6.98094Q164.25 6.79702 164.744 6.6292Q165.238 6.46137 165.738 6.30981Q166.238 6.15825 166.742 6.02311Q167.246 5.88798 167.755 5.76942Q168.263 5.65086 168.775 5.549Q169.288 5.44714 169.803 5.36209Q170.318 5.27704 170.835 5.20889Q171.353 5.14075 171.873 5.08957Q172.392 5.03839 172.913 5.00425Q173.434 4.9701 173.956 4.95301Q174.478 4.93593 175 4.93593Q175.522 4.93593 176.044 4.95301Q176.566 4.9701 177.087 5.00425Q177.608 5.03839 178.127 5.08957Q178.647 5.14075 179.165 5.20889Q179.682 5.27704 180.197 5.36209Q180.713 5.44714 181.225 5.549Q181.737 5.65086 182.245 5.76942Q182.754 5.88798 183.258 6.02311Q183.762 6.15825 184.262 6.30981Q184.762 6.46137 185.256 6.6292Q185.75 6.79702 186.239 6.98094Q186.728 7.16485 187.21 7.36466Q187.692 7.56446 188.168 7.77994Q188.644 7.99542 189.112 8.22635Q189.58 8.45727 190.04 8.70339Q190.501 8.94951 190.953 9.21057Z" fill="url(#gradient_4)" fill-rule="evenodd" transform="translate(447 552)" />
    <path d="M190.953 9.21054L310.601 78.2894Q311.053 78.5504 311.497 78.8261Q311.94 79.1018 312.374 79.3919Q312.808 79.682 313.233 79.9861Q313.657 80.2902 314.071 80.608Q314.486 80.9259 314.889 81.2571Q315.293 81.5883 315.685 81.9326Q316.078 82.2768 316.459 82.6338Q316.84 82.9907 317.209 83.3598Q317.578 83.729 317.935 84.1101Q318.292 84.4912 318.637 84.8837Q318.981 85.2763 319.312 85.6799Q319.643 86.0835 319.961 86.4977Q320.279 86.9119 320.583 87.3363Q320.887 87.7607 321.177 88.1948Q321.467 88.6289 321.743 89.0723Q322.019 89.5157 322.28 89.9678Q322.541 90.42 322.787 90.8805Q323.033 91.3409 323.264 91.8092Q323.495 92.2775 323.71 92.753Q323.926 93.2286 324.126 93.711Q324.326 94.1933 324.509 94.682Q324.693 95.1706 324.861 95.665Q325.029 96.1594 325.181 96.6591Q325.332 97.1587 325.467 97.663Q325.602 98.1673 325.721 98.6758Q325.839 99.1843 325.941 99.6964Q326.043 100.208 326.128 100.724Q326.213 101.239 326.281 101.756Q326.35 102.274 326.401 102.794Q326.452 103.313 326.486 103.834Q326.52 104.355 326.537 104.877Q326.554 105.399 326.554 105.921L326.555 244.079Q326.555 244.601 326.537 245.123Q326.52 245.645 326.486 246.165Q326.452 246.686 326.401 247.206Q326.35 247.726 326.282 248.243Q326.213 248.761 326.128 249.276Q326.043 249.791 325.941 250.303Q325.84 250.815 325.721 251.324Q325.603 251.832 325.467 252.337Q325.332 252.841 325.181 253.341Q325.029 253.84 324.861 254.335Q324.693 254.829 324.51 255.318Q324.326 255.806 324.126 256.289Q323.926 256.771 323.711 257.247Q323.495 257.722 323.264 258.191Q323.033 258.659 322.787 259.119Q322.541 259.58 322.28 260.032Q322.019 260.484 321.743 260.927Q321.467 261.371 321.177 261.805Q320.887 262.239 320.583 262.663Q320.279 263.088 319.961 263.502Q319.643 263.916 319.312 264.32Q318.981 264.723 318.637 265.116Q318.292 265.509 317.936 265.89Q317.579 266.271 317.209 266.64Q316.84 267.009 316.459 267.366Q316.078 267.723 315.686 268.067Q315.293 268.411 314.889 268.743Q314.486 269.074 314.072 269.392Q313.657 269.709 313.233 270.014Q312.809 270.318 312.374 270.608Q311.94 270.898 311.497 271.174Q311.054 271.449 310.601 271.71L190.954 340.789Q190.501 341.051 190.041 341.297Q189.58 341.543 189.112 341.774Q188.644 342.005 188.168 342.22Q187.693 342.436 187.21 342.635Q186.728 342.835 186.239 343.019Q185.751 343.203 185.256 343.371Q184.762 343.539 184.262 343.69Q183.763 343.842 183.258 343.977Q182.754 344.112 182.246 344.231Q181.737 344.349 181.225 344.451Q180.713 344.553 180.198 344.638Q179.683 344.723 179.165 344.791Q178.647 344.859 178.128 344.91Q177.608 344.962 177.087 344.996Q176.566 345.03 176.044 345.047Q175.523 345.064 175 345.064Q174.478 345.064 173.956 345.047Q173.435 345.03 172.914 344.996Q172.393 344.962 171.873 344.91Q171.353 344.859 170.836 344.791Q170.318 344.723 169.803 344.638Q169.288 344.553 168.776 344.451Q168.264 344.349 167.755 344.231Q167.247 344.112 166.742 343.977Q166.238 343.842 165.739 343.69Q165.239 343.539 164.744 343.371Q164.25 343.203 163.761 343.019Q163.273 342.835 162.79 342.635Q162.308 342.436 161.832 342.22Q161.357 342.005 160.889 341.774Q160.42 341.543 159.96 341.297Q159.499 341.051 159.047 340.79L39.399 271.711Q38.9468 271.45 38.5034 271.174Q38.0601 270.898 37.6259 270.608Q37.1918 270.318 36.7674 270.014Q36.343 269.71 35.9288 269.392Q35.5146 269.074 35.111 268.743Q34.7074 268.412 34.3149 268.068Q33.9223 267.723 33.5412 267.367Q33.1602 267.01 32.791 266.64Q32.4218 266.271 32.0649 265.89Q31.708 265.509 31.3637 265.117Q31.0195 264.724 30.6882 264.32Q30.357 263.917 30.0392 263.503Q29.7213 263.088 29.4172 262.664Q29.1131 262.24 28.823 261.806Q28.5329 261.371 28.2572 260.928Q27.9815 260.485 27.7205 260.033Q27.4594 259.58 27.2133 259.12Q26.9672 258.659 26.7362 258.191Q26.5053 257.723 26.2898 257.247Q26.0744 256.772 25.8746 256.289Q25.6747 255.807 25.4908 255.318Q25.3069 254.83 25.1391 254.335Q24.9713 253.841 24.8197 253.341Q24.6681 252.842 24.533 252.337Q24.3979 251.833 24.2793 251.325Q24.1607 250.816 24.0589 250.304Q23.957 249.792 23.872 249.277Q23.7869 248.762 23.7188 248.244Q23.6506 247.726 23.5994 247.207Q23.5483 246.687 23.5141 246.166Q23.48 245.645 23.4629 245.123Q23.4458 244.602 23.4458 244.079L23.4453 105.922Q23.4452 105.4 23.4623 104.878Q23.4794 104.356 23.5136 103.835Q23.5477 103.314 23.5989 102.794Q23.6501 102.275 23.7182 101.757Q23.7863 101.239 23.8714 100.724Q23.9564 100.209 24.0583 99.6971Q24.1602 99.185 24.2787 98.6765Q24.3973 98.1681 24.5324 97.6637Q24.6675 97.1594 24.8191 96.6598Q24.9707 96.1602 25.1385 95.6658Q25.3063 95.1714 25.4902 94.6827Q25.6741 94.1941 25.8739 93.7117Q26.0737 93.2293 26.2892 92.7538Q26.5047 92.2782 26.7356 91.8099Q26.9666 91.3416 27.2127 90.8812Q27.4588 90.4207 27.7199 89.9686Q27.9809 89.5164 28.2566 89.073Q28.5323 88.6296 28.8224 88.1955Q29.1125 87.7614 29.4166 87.337Q29.7207 86.9126 30.0385 86.4984Q30.3564 86.0842 30.6876 85.6805Q31.0188 85.277 31.3631 84.8844Q31.7073 84.4919 32.0643 84.1108Q32.4212 83.7297 32.7904 83.3605Q33.1595 82.9913 33.5406 82.6344Q33.9217 82.2775 34.3142 81.9333Q34.7068 81.589 35.1104 81.2578Q35.514 80.9266 35.9282 80.6087Q36.3424 80.2909 36.7668 79.9867Q37.1912 79.6826 37.6253 79.3926Q38.0595 79.1025 38.5028 78.8268Q38.9462 78.5511 39.3984 78.29L159.047 9.2106Q159.499 8.94954 159.96 8.70342Q160.42 8.4573 160.888 8.22637Q161.356 7.99545 161.832 7.77997Q162.308 7.56449 162.79 7.36468Q163.272 7.16488 163.761 6.98096Q164.25 6.79705 164.744 6.62922Q165.238 6.46139 165.738 6.30983Q166.238 6.15826 166.742 6.02313Q167.246 5.888 167.755 5.76944Q168.263 5.65088 168.775 5.54902Q169.288 5.44715 169.803 5.3621Q170.318 5.27705 170.835 5.2089Q171.353 5.14075 171.873 5.08957Q172.392 5.0384 172.913 5.00425Q173.434 4.9701 173.956 4.95302Q174.478 4.93593 175 4.93593Q175.522 4.93593 176.044 4.95301Q176.566 4.97009 177.087 5.00424Q177.608 5.03839 178.127 5.08956Q178.647 5.14074 179.165 5.20889Q179.682 5.27704 180.197 5.36208Q180.713 5.44713 181.225 5.54899Q181.737 5.65085 182.245 5.76941Q182.754 5.88797 183.258 6.0231Q183.762 6.15823 184.262 6.30979Q184.762 6.46135 185.256 6.62918Q185.75 6.797 186.239 6.98092Q186.728 7.16483 187.21 7.36463Q187.692 7.56444 188.168 7.77992Q188.644 7.99539 189.112 8.22632Q189.58 8.45724 190.04 8.70336Q190.501 8.94949 190.953 9.21054Z" fill="url(#gradient_5)" fill-rule="evenodd" transform="translate(599 290)" />
    <path d="M190.953 9.21055L310.601 78.2894Q311.053 78.5504 311.497 78.8261Q311.94 79.1018 312.374 79.3919Q312.808 79.682 313.233 79.9861Q313.657 80.2902 314.071 80.608Q314.486 80.9259 314.889 81.2571Q315.293 81.5883 315.685 81.9326Q316.078 82.2768 316.459 82.6337Q316.84 82.9906 317.209 83.3598Q317.578 83.729 317.935 84.1101Q318.292 84.4912 318.637 84.8837Q318.981 85.2763 319.312 85.6799Q319.643 86.0835 319.961 86.4977Q320.279 86.9119 320.583 87.3363Q320.887 87.7607 321.177 88.1948Q321.467 88.6289 321.743 89.0723Q322.019 89.5157 322.28 89.9678Q322.541 90.42 322.787 90.8805Q323.033 91.3409 323.264 91.8092Q323.495 92.2775 323.71 92.753Q323.926 93.2286 324.126 93.711Q324.326 94.1933 324.509 94.682Q324.693 95.1706 324.861 95.665Q325.029 96.1594 325.181 96.6591Q325.332 97.1587 325.467 97.663Q325.602 98.1673 325.721 98.6758Q325.839 99.1843 325.941 99.6963Q326.043 100.208 326.128 100.724Q326.213 101.239 326.281 101.756Q326.35 102.274 326.401 102.794Q326.452 103.313 326.486 103.834Q326.52 104.355 326.537 104.877Q326.554 105.399 326.554 105.921L326.555 244.079Q326.555 244.601 326.537 245.123Q326.52 245.644 326.486 246.165Q326.452 246.686 326.401 247.206Q326.35 247.726 326.282 248.243Q326.213 248.761 326.128 249.276Q326.043 249.791 325.941 250.303Q325.84 250.815 325.721 251.324Q325.603 251.832 325.467 252.337Q325.332 252.841 325.181 253.341Q325.029 253.84 324.861 254.335Q324.693 254.829 324.51 255.318Q324.326 255.806 324.126 256.289Q323.926 256.771 323.711 257.247Q323.495 257.722 323.264 258.19Q323.033 258.659 322.787 259.119Q322.541 259.58 322.28 260.032Q322.019 260.484 321.743 260.927Q321.467 261.371 321.177 261.805Q320.887 262.239 320.583 262.663Q320.279 263.088 319.961 263.502Q319.643 263.916 319.312 264.32Q318.981 264.723 318.637 265.116Q318.292 265.509 317.936 265.89Q317.579 266.271 317.209 266.64Q316.84 267.009 316.459 267.366Q316.078 267.723 315.686 268.067Q315.293 268.411 314.889 268.743Q314.486 269.074 314.072 269.392Q313.657 269.709 313.233 270.014Q312.809 270.318 312.374 270.608Q311.94 270.898 311.497 271.174Q311.054 271.449 310.601 271.71L190.954 340.789Q190.501 341.051 190.041 341.297Q189.58 341.543 189.112 341.774Q188.644 342.005 188.168 342.22Q187.693 342.436 187.21 342.635Q186.728 342.835 186.239 343.019Q185.751 343.203 185.256 343.371Q184.762 343.539 184.262 343.69Q183.763 343.842 183.258 343.977Q182.754 344.112 182.246 344.231Q181.737 344.349 181.225 344.451Q180.713 344.553 180.198 344.638Q179.683 344.723 179.165 344.791Q178.647 344.859 178.128 344.91Q177.608 344.962 177.087 344.996Q176.566 345.03 176.044 345.047Q175.523 345.064 175 345.064Q174.478 345.064 173.956 345.047Q173.435 345.03 172.914 344.996Q172.393 344.962 171.873 344.91Q171.353 344.859 170.836 344.791Q170.318 344.723 169.803 344.638Q169.288 344.553 168.776 344.451Q168.264 344.349 167.755 344.231Q167.247 344.112 166.742 343.977Q166.238 343.842 165.739 343.69Q165.239 343.539 164.744 343.371Q164.25 343.203 163.761 343.019Q163.273 342.835 162.79 342.635Q162.308 342.436 161.832 342.22Q161.357 342.005 160.889 341.774Q160.42 341.543 159.96 341.297Q159.499 341.051 159.047 340.79L39.399 271.711Q38.9468 271.45 38.5034 271.174Q38.0601 270.898 37.6259 270.608Q37.1918 270.318 36.7674 270.014Q36.343 269.71 35.9288 269.392Q35.5146 269.074 35.111 268.743Q34.7074 268.412 34.3148 268.068Q33.9223 267.724 33.5412 267.367Q33.1602 267.01 32.791 266.64Q32.4218 266.271 32.0649 265.89Q31.708 265.509 31.3637 265.117Q31.0194 264.724 30.6882 264.32Q30.357 263.917 30.0392 263.503Q29.7213 263.088 29.4172 262.664Q29.1131 262.24 28.823 261.806Q28.5329 261.371 28.2572 260.928Q27.9815 260.485 27.7204 260.033Q27.4594 259.58 27.2133 259.12Q26.9671 258.659 26.7362 258.191Q26.5053 257.723 26.2898 257.247Q26.0743 256.772 25.8745 256.289Q25.6747 255.807 25.4908 255.318Q25.3069 254.83 25.1391 254.335Q24.9712 253.841 24.8197 253.341Q24.6681 252.842 24.533 252.337Q24.3978 251.833 24.2793 251.325Q24.1607 250.816 24.0589 250.304Q23.957 249.792 23.8719 249.277Q23.7869 248.762 23.7187 248.244Q23.6506 247.726 23.5994 247.207Q23.5482 246.687 23.5141 246.166Q23.4799 245.645 23.4629 245.123Q23.4458 244.602 23.4458 244.079L23.4453 105.922Q23.4453 105.4 23.4624 104.878Q23.4794 104.356 23.5136 103.835Q23.5477 103.314 23.5989 102.794Q23.6501 102.275 23.7182 101.757Q23.7864 101.239 23.8714 100.724Q23.9565 100.209 24.0583 99.6971Q24.1602 99.185 24.2787 98.6765Q24.3973 98.1681 24.5324 97.6637Q24.6676 97.1594 24.8191 96.6598Q24.9707 96.1602 25.1385 95.6658Q25.3063 95.1714 25.4902 94.6827Q25.6742 94.1941 25.874 93.7117Q26.0738 93.2293 26.2892 92.7538Q26.5047 92.2782 26.7356 91.8099Q26.9666 91.3416 27.2127 90.8812Q27.4588 90.4207 27.7199 89.9686Q27.9809 89.5164 28.2566 89.073Q28.5323 88.6296 28.8224 88.1955Q29.1125 87.7614 29.4166 87.337Q29.7207 86.9126 30.0386 86.4984Q30.3564 86.0841 30.6876 85.6805Q31.0188 85.2769 31.3631 84.8844Q31.7073 84.4919 32.0643 84.1108Q32.4212 83.7297 32.7904 83.3605Q33.1595 82.9913 33.5406 82.6344Q33.9217 82.2775 34.3142 81.9333Q34.7068 81.589 35.1104 81.2578Q35.514 80.9266 35.9282 80.6087Q36.3424 80.2909 36.7668 79.9867Q37.1912 79.6826 37.6253 79.3926Q38.0594 79.1025 38.5028 78.8268Q38.9462 78.5511 39.3983 78.29L159.047 9.21059Q159.499 8.94953 159.96 8.70341Q160.42 8.45729 160.888 8.22636Q161.356 7.99544 161.832 7.77996Q162.308 7.56448 162.79 7.36467Q163.272 7.16487 163.761 6.98095Q164.25 6.79704 164.744 6.62921Q165.238 6.46138 165.738 6.30982Q166.238 6.15826 166.742 6.02312Q167.246 5.88799 167.755 5.76943Q168.263 5.65087 168.775 5.54901Q169.288 5.44715 169.803 5.3621Q170.318 5.27705 170.835 5.2089Q171.353 5.14075 171.873 5.08957Q172.392 5.0384 172.913 5.00425Q173.434 4.9701 173.956 4.95302Q174.478 4.93593 175 4.93593Q175.522 4.93593 176.044 4.95301Q176.566 4.9701 177.087 5.00424Q177.608 5.03839 178.127 5.08957Q178.647 5.14074 179.165 5.20889Q179.682 5.27704 180.197 5.36209Q180.713 5.44714 181.225 5.549Q181.737 5.65085 182.245 5.76941Q182.754 5.88797 183.258 6.0231Q183.762 6.15824 184.262 6.3098Q184.762 6.46136 185.256 6.62918Q185.75 6.79701 186.239 6.98093Q186.728 7.16484 187.21 7.36464Q187.692 7.56445 188.168 7.77993Q188.644 7.9954 189.112 8.22633Q189.58 8.45725 190.04 8.70337Q190.501 8.9495 190.953 9.21055L190.953 9.21055Z" fill="url(#gradient_6)" fill-rule="evenodd" transform="translate(447 28)" />
    <path d="M172.453 9.21054L276.08 69.0394Q276.532 69.3004 276.975 69.5761Q277.419 69.8519 277.853 70.1419Q278.287 70.432 278.711 70.7361Q279.136 71.0402 279.55 71.3581Q279.964 71.6759 280.368 72.0071Q280.771 72.3383 281.164 72.6826Q281.556 73.0268 281.938 73.3838Q282.319 73.7407 282.688 74.1098Q283.057 74.479 283.414 74.8601Q283.771 75.2412 284.115 75.6337Q284.459 76.0263 284.791 76.4299Q285.122 76.8335 285.44 77.2477Q285.757 77.6619 286.062 78.0863Q286.366 78.5107 286.656 78.9448Q286.946 79.3789 287.222 79.8223Q287.497 80.2657 287.758 80.7178Q288.019 81.17 288.266 81.6305Q288.512 82.0909 288.743 82.5592Q288.973 83.0275 289.189 83.503Q289.404 83.9786 289.604 84.461Q289.804 84.9433 289.988 85.432Q290.172 85.9206 290.34 86.415Q290.508 86.9094 290.659 87.4091Q290.811 87.9087 290.946 88.413Q291.081 88.9173 291.199 89.4258Q291.318 89.9343 291.42 90.4464Q291.522 90.9584 291.607 91.4736Q291.692 91.9887 291.76 92.5063Q291.828 93.024 291.879 93.5436Q291.931 94.0632 291.965 94.5842Q291.999 95.1052 292.016 95.627Q292.033 96.1488 292.033 96.671L292.033 216.329Q292.033 216.851 292.016 217.373Q291.999 217.895 291.965 218.415Q291.931 218.936 291.879 219.456Q291.828 219.976 291.76 220.493Q291.692 221.011 291.607 221.526Q291.522 222.041 291.42 222.553Q291.318 223.065 291.2 223.574Q291.081 224.082 290.946 224.587Q290.811 225.091 290.659 225.591Q290.508 226.09 290.34 226.585Q290.172 227.079 289.988 227.568Q289.804 228.056 289.604 228.539Q289.405 229.021 289.189 229.497Q288.974 229.972 288.743 230.44Q288.512 230.909 288.266 231.369Q288.02 231.83 287.758 232.282Q287.497 232.734 287.222 233.177Q286.946 233.621 286.656 234.055Q286.366 234.489 286.062 234.913Q285.758 235.338 285.44 235.752Q285.122 236.166 284.791 236.57Q284.46 236.973 284.115 237.366Q283.771 237.758 283.414 238.14Q283.057 238.521 282.688 238.89Q282.319 239.259 281.938 239.616Q281.557 239.973 281.164 240.317Q280.772 240.661 280.368 240.993Q279.964 241.324 279.55 241.642Q279.136 241.959 278.712 242.264Q278.287 242.568 277.853 242.858Q277.419 243.148 276.976 243.424Q276.532 243.699 276.08 243.96L172.453 303.789Q172.001 304.05 171.541 304.297Q171.08 304.543 170.612 304.774Q170.144 305.005 169.668 305.22Q169.193 305.436 168.71 305.635Q168.228 305.835 167.739 306.019Q167.251 306.203 166.756 306.371Q166.262 306.539 165.762 306.69Q165.263 306.842 164.758 306.977Q164.254 307.112 163.746 307.231Q163.237 307.349 162.725 307.451Q162.213 307.553 161.698 307.638Q161.183 307.723 160.665 307.791Q160.147 307.859 159.628 307.91Q159.108 307.962 158.587 307.996Q158.066 308.03 157.544 308.047Q157.022 308.064 156.5 308.064Q155.978 308.064 155.456 308.047Q154.935 308.03 154.414 307.996Q153.893 307.962 153.373 307.91Q152.853 307.859 152.336 307.791Q151.818 307.723 151.303 307.638Q150.788 307.553 150.276 307.451Q149.764 307.349 149.255 307.231Q148.747 307.112 148.242 306.977Q147.738 306.842 147.238 306.69Q146.739 306.539 146.244 306.371Q145.75 306.203 145.261 306.019Q144.773 305.835 144.29 305.635Q143.808 305.436 143.332 305.22Q142.857 305.005 142.389 304.774Q141.92 304.543 141.46 304.297Q140.999 304.051 140.547 303.79L36.9204 243.961Q36.4682 243.7 36.0249 243.424Q35.5815 243.148 35.1474 242.858Q34.7132 242.568 34.2889 242.264Q33.8645 241.96 33.4502 241.642Q33.036 241.324 32.6324 240.993Q32.2288 240.662 31.8363 240.318Q31.4437 239.973 31.0627 239.617Q30.6816 239.26 30.3124 238.89Q29.9432 238.521 29.5863 238.14Q29.2294 237.759 28.8851 237.367Q28.5409 236.974 28.2097 236.57Q27.8784 236.167 27.5606 235.753Q27.2428 235.338 26.9386 234.914Q26.6345 234.49 26.3444 234.056Q26.0544 233.621 25.7787 233.178Q25.503 232.735 25.2419 232.282Q24.9808 231.83 24.7347 231.37Q24.4886 230.909 24.2577 230.441Q24.0267 229.973 23.8113 229.497Q23.5958 229.022 23.396 228.539Q23.1962 228.057 23.0123 227.568Q22.8283 227.08 22.6605 226.585Q22.4927 226.091 22.3411 225.591Q22.1896 225.092 22.0544 224.587Q21.9193 224.083 21.8007 223.574Q21.6822 223.066 21.5803 222.554Q21.4785 222.042 21.3934 221.527Q21.3083 221.012 21.2402 220.494Q21.172 219.976 21.1209 219.457Q21.0697 218.937 21.0355 218.416Q21.0014 217.895 20.9843 217.373Q20.9672 216.851 20.9672 216.329L20.9668 96.6716Q20.9668 96.1495 20.9839 95.6277Q21.001 95.1059 21.0351 94.5849Q21.0692 94.0639 21.1204 93.5443Q21.1716 93.0247 21.2397 92.507Q21.3079 91.9894 21.3929 91.4743Q21.478 90.9591 21.5798 90.447Q21.6817 89.935 21.8003 89.4265Q21.9188 88.918 22.0539 88.4137Q22.1891 87.9094 22.3406 87.4097Q22.4922 86.9101 22.66 86.4157Q22.8278 85.9213 23.0118 85.4326Q23.1957 84.944 23.3955 84.4616Q23.5953 83.9793 23.8107 83.5037Q24.0262 83.0281 24.2571 82.5598Q24.4881 82.0916 24.7342 81.6311Q24.9803 81.1707 25.2414 80.7185Q25.5024 80.2663 25.7781 79.8229Q26.0538 79.3796 26.3439 78.9454Q26.634 78.5113 26.9381 78.0869Q27.2422 77.6625 27.5601 77.2483Q27.8779 76.8341 28.2091 76.4305Q28.5403 76.0269 28.8846 75.6344Q29.2288 75.2418 29.5858 74.8607Q29.9427 74.4797 30.3119 74.1105Q30.681 73.7413 31.0621 73.3844Q31.4432 73.0275 31.8357 72.6832Q32.2283 72.3389 32.6319 72.0077Q33.0355 71.6765 33.4497 71.3587Q33.8639 71.0408 34.2883 70.7367Q34.7127 70.4326 35.1468 70.1425Q35.5809 69.8524 36.0243 69.5767Q36.4677 69.301 36.9199 69.0399L140.547 9.2106Q140.999 8.94954 141.46 8.70342Q141.92 8.4573 142.388 8.22637Q142.856 7.99545 143.332 7.77997Q143.808 7.56449 144.29 7.36468Q144.772 7.16488 145.261 6.98096Q145.75 6.79705 146.244 6.62922Q146.738 6.46139 147.238 6.30983Q147.738 6.15826 148.242 6.02313Q148.746 5.888 149.255 5.76944Q149.763 5.65088 150.275 5.54902Q150.787 5.44715 151.303 5.3621Q151.818 5.27705 152.335 5.2089Q152.853 5.14075 153.373 5.08957Q153.892 5.0384 154.413 5.00425Q154.934 4.9701 155.456 4.95302Q155.978 4.93593 156.5 4.93593Q157.022 4.93593 157.544 4.95301Q158.066 4.97009 158.587 5.00424Q159.108 5.03839 159.627 5.08956Q160.147 5.14074 160.665 5.20889Q161.182 5.27704 161.697 5.36208Q162.213 5.44713 162.725 5.54899Q163.237 5.65085 163.745 5.76941Q164.254 5.88797 164.758 6.0231Q165.262 6.15823 165.762 6.30979Q166.262 6.46135 166.756 6.62918Q167.25 6.797 167.739 6.98092Q168.228 7.16483 168.71 7.36463Q169.192 7.56444 169.668 7.77992Q170.144 7.99539 170.612 8.22632Q171.08 8.45724 171.541 8.70336Q172.001 8.94949 172.453 9.21054Z" fill="url(#gradient_7)" fill-rule="evenodd" transform="translate(307 308)" />
    <g filter="url(#filter_8)" transform="translate(395 367)">
      <path d="M119.148 38.6364L99.8296 155L81.0796 155L39.4318 75.7386L38.5227 75.7386L25.2841 155L4.20455 155L23.5227 38.6364L42.3864 38.6364L83.9773 117.955L85.0568 117.955L98.1818 38.6364L119.148 38.6364Z" fill="#FFFFFF" />
    </g>
  </g>
</svg>